<svg width="185" height="43" viewBox="0 0 185 43" fill="none" xmlns="http://www.w3.org/2000/svg">
<path d="M66.8427 34.7461C66.9284 34.0665 67.116 33.4705 67.4053 32.9413C67.6947 32.4121 68.0912 31.9998 68.5895 31.699C69.0878 31.3982 69.6879 31.2478 70.3845 31.2478C71.081 31.2478 71.6597 31.3871 72.1634 31.6767C72.6724 31.9664 73.0582 32.3731 73.3261 32.9078C73.594 33.4426 73.728 34.0554 73.728 34.7461H66.8427ZM73.2404 30.0167C72.3777 29.5432 71.4025 29.3037 70.3202 29.3037C69.1735 29.3037 68.1608 29.5711 67.2821 30.1059C66.398 30.6406 65.7121 31.4038 65.2192 32.3953C64.7262 33.3925 64.4797 34.5511 64.4797 35.8713C64.4797 37.1915 64.7209 38.3502 65.2085 39.3362C65.696 40.3222 66.3819 41.0853 67.2714 41.6257C68.1608 42.1716 69.1896 42.439 70.3684 42.439C71.3114 42.439 72.1741 42.2607 72.951 41.9098C73.7333 41.5588 74.3763 41.0631 74.8853 40.428C75.3944 39.7985 75.7266 39.0744 75.882 38.2611H73.5351C73.3208 38.9518 72.9296 39.5033 72.3724 39.8988C71.8151 40.2943 71.1453 40.4949 70.363 40.4949C69.6825 40.4949 69.0771 40.3333 68.5466 39.9991C68.0161 39.6704 67.6089 39.2081 67.3196 38.612C67.0302 38.0216 66.8641 37.3475 66.8213 36.5899H76.0052V35.2809C76.0052 34.0275 75.7587 32.958 75.2658 32.0611C74.7728 31.1643 74.0977 30.4791 73.235 30.0056H73.2457L73.2404 30.0167Z" fill="#000000"/>
<path d="M69.2104 28.2453H71.2519L73.422 24.8584H70.9465L69.2104 28.2453Z" fill="#000000"/>
<path d="M86.8972 38.2988C86.5864 39.0006 86.147 39.541 85.5844 39.9254C85.0218 40.3097 84.3681 40.5047 83.6287 40.5047C82.8892 40.5047 82.2355 40.3153 81.6622 39.9309C81.0889 39.5466 80.6442 39.0062 80.3387 38.3043C80.028 37.6024 79.8726 36.7947 79.8726 35.8812C79.8726 34.9676 80.028 34.1543 80.3387 33.458C80.6495 32.7561 81.0943 32.2158 81.6622 31.8314C82.2302 31.447 82.8892 31.2521 83.6287 31.2521C84.3681 31.2521 85.0218 31.4415 85.5844 31.8258C86.147 32.2102 86.5864 32.7505 86.8972 33.4524C87.208 34.1543 87.3633 34.962 87.3633 35.8756C87.3633 36.7892 87.208 37.6024 86.8972 38.2988ZM87.3419 30.8176C87.3419 31.4025 87.358 31.8481 87.3848 32.1489H87.3419C86.9829 31.2744 86.4149 30.5836 85.6487 30.0711C84.8771 29.5586 84.0091 29.3024 83.0446 29.3024C82.0802 29.3024 81.1693 29.5586 80.328 30.0711C79.4868 30.5836 78.817 31.3356 78.308 32.3272C77.799 33.3187 77.5525 34.5052 77.5525 35.8756C77.5525 37.2459 77.8043 38.4269 78.3134 39.424C78.8224 40.4211 79.4975 41.1676 80.3334 41.6801C81.1746 42.1925 82.0802 42.4488 83.05 42.4488C84.0198 42.4488 84.8879 42.1925 85.6541 41.6801C86.4203 41.1676 86.9883 40.4768 87.3473 39.6023H87.3901C87.3741 39.9198 87.3687 40.371 87.3687 40.9559V42.0867H89.5602V24.4561H87.3473V30.8231L87.3419 30.8176Z" fill="#000000"/>
<path d="M94.8173 25.1484H92.5562V27.4491H94.8173V25.1484Z" fill="#000000"/>
<path d="M94.7911 29.6641H92.5781V42.0807H94.7911V29.6641Z" fill="#000000"/>
<path d="M101.21 39.7419C100.969 39.508 100.851 39.1403 100.851 38.6223V31.6424H104.564V29.6593H100.851V26.2725H98.633V29.6593H96.2646V31.6424H98.633V38.7782C98.633 39.8589 98.9009 40.6834 99.4421 41.2404C99.9779 41.7975 100.776 42.076 101.832 42.076H104.677V40.0929H102.287C101.81 40.0929 101.451 39.9759 101.21 39.7475V39.7419Z" fill="#000000"/>
<path d="M107.693 34.7461C107.779 34.0665 107.966 33.4705 108.255 32.9413C108.545 32.4121 108.941 31.9998 109.44 31.699C109.938 31.3982 110.538 31.2478 111.229 31.2478C111.92 31.2478 112.504 31.3871 113.013 31.6767C113.523 31.9664 113.908 32.3731 114.176 32.9078C114.444 33.4426 114.578 34.0554 114.578 34.7461H107.693ZM114.09 30.0167C113.228 29.5432 112.253 29.3037 111.17 29.3037C110.024 29.3037 109.011 29.5711 108.132 30.1059C107.248 30.6406 106.562 31.4038 106.069 32.3953C105.576 33.3925 105.33 34.5511 105.33 35.8713C105.33 37.1915 105.571 38.3502 106.059 39.3362C106.546 40.3222 107.232 41.0853 108.121 41.6257C109.011 42.1716 110.045 42.439 111.218 42.439C112.162 42.439 113.024 42.2607 113.801 41.9098C114.583 41.5588 115.226 41.0631 115.735 40.428C116.244 39.7985 116.577 39.0744 116.732 38.2611H114.391C114.171 38.9518 113.785 39.5033 113.228 39.8988C112.671 40.2943 112.001 40.4949 111.218 40.4949C110.538 40.4949 109.933 40.3333 109.402 39.9991C108.872 39.6704 108.464 39.2081 108.175 38.612C107.886 38.0216 107.72 37.3475 107.677 36.5899H116.861V35.2809C116.861 34.0275 116.614 32.958 116.121 32.0611C115.628 31.1643 114.953 30.4791 114.09 30.0056H114.101L114.09 30.0167Z" fill="#000000"/>
<path d="M122.278 30.171C121.838 30.5108 121.463 31.04 121.158 31.7641H121.115V29.6641H118.945V42.0807H121.158V35.0396C121.158 33.8976 121.378 33.0454 121.812 32.4883C122.246 31.9313 122.937 31.6527 123.875 31.6527H125.348V29.6696H124.196C123.355 29.6696 122.717 29.8367 122.273 30.1765L122.278 30.171Z" fill="#000000"/>
<path d="M130.202 30.1661C129.763 30.5059 129.387 31.0351 129.082 31.7593H129.039V29.6592H126.869V42.0758H129.082V35.0347C129.082 33.8928 129.302 33.0405 129.736 32.4834C130.17 31.9264 130.861 31.6479 131.799 31.6479H133.272V29.6647H132.12C131.279 29.6647 130.641 29.8319 130.197 30.1717L130.202 30.1661Z" fill="#000000"/>
<path d="M141.985 36.434C141.985 37.3197 141.819 38.0717 141.487 38.6789C141.155 39.2861 140.716 39.7428 140.174 40.0436C139.628 40.3445 139.044 40.4949 138.406 40.4949C137.624 40.4949 137.045 40.3055 136.67 39.9211C136.295 39.5367 136.102 39.0465 136.102 38.4393C136.102 37.8711 136.295 37.3921 136.686 37.0189C137.077 36.6456 137.677 36.4451 138.486 36.4284L139.419 36.4061C140.099 36.4061 140.635 36.3003 141.037 36.0886C141.434 35.8769 141.734 35.5538 141.937 35.1193H141.98V36.4284L141.985 36.434ZM144.375 39.91C144.257 39.793 144.204 39.5869 144.204 39.3028V33.5707C144.204 32.7129 144.038 31.9664 143.705 31.3369C143.373 30.7075 142.853 30.2061 142.141 29.8496C141.434 29.4875 140.528 29.3037 139.424 29.3037C137.785 29.3037 136.536 29.6881 135.668 30.4679C134.8 31.2422 134.323 32.3174 134.237 33.6877H136.499C136.541 32.9023 136.825 32.3006 137.356 31.8829C137.886 31.4595 138.583 31.2534 139.451 31.2534C140.19 31.2534 140.796 31.4205 141.278 31.7492C141.755 32.0834 141.996 32.5513 141.996 33.1474C141.996 33.6153 141.846 33.9718 141.551 34.2169C141.251 34.4676 140.807 34.5901 140.217 34.5901H138.331C137.029 34.5901 135.947 34.9132 135.084 35.5594C134.221 36.2056 133.793 37.186 133.793 38.495C133.793 39.3195 133.97 40.0381 134.329 40.6397C134.682 41.2413 135.17 41.6925 135.791 41.9933C136.413 42.2941 137.109 42.4445 137.876 42.4445C138.845 42.4445 139.692 42.205 140.415 41.7204C141.139 41.2357 141.691 40.5283 142.066 39.598H142.109V40.2275C142.109 40.8012 142.28 41.2524 142.618 41.5811C142.955 41.9153 143.432 42.0769 144.043 42.0769H145.516V40.0938H144.997C144.707 40.0938 144.504 40.0325 144.391 39.9155L144.375 39.91Z" fill="#000000"/>
<path d="M155.602 29.8939C154.996 29.4984 154.267 29.2979 153.431 29.2979C152.547 29.2979 151.776 29.5207 151.122 29.9663C150.463 30.412 149.954 31.0359 149.59 31.8547H149.547V29.6655H147.377V42.0822H149.595V35.2193C149.595 34.3336 149.74 33.5871 150.029 32.9967C150.318 32.4006 150.699 31.9661 151.17 31.6876C151.642 31.4091 152.162 31.2698 152.724 31.2698C153.517 31.2698 154.144 31.5539 154.594 32.1165C155.044 32.6847 155.269 33.5649 155.269 34.7681V42.0822H157.482V34.5174C157.482 33.4033 157.322 32.4563 157.005 31.6709C156.684 30.8854 156.223 30.295 155.612 29.8995L155.602 29.8939Z" fill="#000000"/>
<path d="M164.327 28.2338H166.374L168.544 24.8525H166.069L164.327 28.2338Z" fill="#000000"/>
<path d="M161.965 34.7409C162.051 34.0613 162.239 33.4653 162.528 32.9361C162.817 32.4069 163.214 31.9947 163.712 31.6939C164.21 31.3931 164.81 31.2426 165.507 31.2426C166.204 31.2426 166.782 31.3875 167.286 31.6716C167.795 31.9612 168.181 32.3679 168.449 32.9027C168.717 33.4374 168.851 34.0502 168.851 34.7409H161.965ZM168.358 30.006C167.495 29.5325 166.52 29.293 165.437 29.293C164.291 29.293 163.278 29.5604 162.399 30.0951C161.515 30.6299 160.829 31.3931 160.336 32.3846C159.843 33.3817 159.597 34.5404 159.597 35.8606C159.597 37.1808 159.838 38.3395 160.326 39.3255C160.813 40.3114 161.499 41.0746 162.389 41.6149C163.278 42.1608 164.307 42.4282 165.486 42.4282C166.429 42.4282 167.291 42.25 168.068 41.899C168.851 41.5481 169.493 41.0523 170.003 40.4173C170.512 39.7878 170.844 39.0636 170.999 38.2503H168.652C168.438 38.9411 168.047 39.4926 167.49 39.8881C166.932 40.2836 166.263 40.4841 165.48 40.4841C164.8 40.4841 164.194 40.3226 163.664 39.9883C163.133 39.6597 162.726 39.1973 162.437 38.6013C162.147 38.0108 161.981 37.3368 161.938 36.5792H171.122V35.2701C171.122 34.0168 170.876 32.9472 170.383 32.0504C169.89 31.1535 169.215 30.4683 168.352 29.9949H168.363L168.358 30.006Z" fill="#000000"/>
<path d="M175.039 34.7409C175.13 34.0613 175.318 33.4653 175.602 32.9361C175.891 32.4069 176.288 31.9947 176.786 31.6939C177.284 31.3931 177.884 31.2426 178.576 31.2426C179.267 31.2426 179.851 31.3819 180.355 31.6716C180.864 31.9612 181.249 32.3679 181.517 32.9027C181.785 33.4374 181.919 34.0502 181.919 34.7409H175.034H175.039ZM184.202 35.2813C184.202 34.0279 183.955 32.9584 183.462 32.0615C182.969 31.1647 182.294 30.4795 181.432 30.006C180.569 29.5325 179.594 29.293 178.511 29.293C177.365 29.293 176.357 29.5604 175.473 30.0951C174.589 30.6299 173.903 31.3931 173.41 32.3846C172.917 33.3817 172.671 34.5404 172.671 35.8606C172.671 37.1808 172.912 38.3395 173.4 39.3255C173.887 40.3114 174.573 41.0746 175.463 41.6149C176.352 42.1553 177.386 42.4282 178.56 42.4282C179.503 42.4282 180.36 42.25 181.142 41.8935C181.924 41.5425 182.567 41.0467 183.076 40.4117C183.586 39.7822 183.918 39.0581 184.073 38.2448H181.726C181.512 38.9355 181.121 39.487 180.564 39.8825C180.006 40.278 179.336 40.4785 178.554 40.4785C177.874 40.4785 177.268 40.3114 176.738 39.9828C176.207 39.6541 175.8 39.1918 175.511 38.5957C175.221 38.0052 175.055 37.3312 175.012 36.5736H184.196V35.2646H184.207L184.202 35.2813Z" fill="#000000"/>
<path d="M3.823 16.2794C4.94286 16.9478 6.23955 17.2876 7.71305 17.2876C9.04724 17.2876 10.2153 17.0147 11.228 16.4632C12.2407 15.9117 13.0337 15.1764 13.6124 14.2628C14.1911 13.3493 14.5447 12.3299 14.6733 11.2158H12.3104C12.2354 11.8842 12.005 12.5304 11.6138 13.1376C11.2227 13.7504 10.6922 14.2573 10.0331 14.6583C9.37409 15.0594 8.60251 15.2655 7.71305 15.2655C6.75393 15.2655 5.89126 15.0149 5.13576 14.5135C4.3749 14.0177 3.78014 13.2991 3.34076 12.3689C2.90139 11.4386 2.68707 10.3468 2.68707 9.09341C2.68707 7.84004 2.88532 6.73708 3.28718 5.81795C3.68905 4.90439 4.26773 4.2025 5.0286 3.70673C5.7841 3.21095 6.68428 2.96585 7.71305 2.96585C8.6293 2.96585 9.42231 3.16082 10.0974 3.54518C10.7726 3.92955 11.2923 4.45318 11.6674 5.1105C12.0371 5.76225 12.2568 6.48084 12.3104 7.25514H14.6733C14.5715 6.07419 14.2393 5.01023 13.6714 4.04653C13.1034 3.0884 12.3104 2.32524 11.2977 1.76819C10.2796 1.21114 9.08475 0.932617 7.70769 0.932617C6.17525 0.932617 4.85178 1.26685 3.74263 1.92974C2.63348 2.59263 1.77617 3.53961 1.17606 4.7707C0.565221 5.99064 0.275879 7.4334 0.275879 9.08784C0.275879 10.7256 0.586654 12.1683 1.21356 13.4106C1.83511 14.6528 2.7085 15.6109 3.82836 16.2794H3.823Z" fill="#000000"/>
<path d="M24.349 10.0464H24.3918V11.3444C24.3918 12.2245 24.2257 12.9598 23.8989 13.567C23.5667 14.1686 23.138 14.6198 22.6022 14.9151C22.0664 15.2159 21.477 15.3607 20.8501 15.3607C20.0785 15.3607 19.5052 15.1713 19.1301 14.7925C18.7604 14.4137 18.5728 13.9235 18.5728 13.3275C18.5728 12.7593 18.7657 12.2914 19.1569 11.9181C19.5427 11.5449 20.1374 11.3499 20.9412 11.3388L21.8628 11.3165C22.5379 11.3165 23.0684 11.2107 23.4649 11.0046C23.856 10.7985 24.1561 10.4754 24.3543 10.0464H24.349ZM22.629 9.5061H20.759C19.473 9.5061 18.396 9.82919 17.5494 10.4642C16.6975 11.1048 16.2742 12.0741 16.2742 13.3665C16.2742 14.1853 16.451 14.8928 16.7993 15.4888C17.1476 16.0849 17.6352 16.5361 18.2513 16.8257C18.8675 17.1266 19.5534 17.2714 20.3142 17.2714C21.2734 17.2714 22.1146 17.0319 22.8272 16.5528C23.5452 16.0737 24.0918 15.3774 24.4615 14.4527H24.5044V15.0822C24.5044 15.6504 24.6758 16.096 25.008 16.4191C25.3402 16.7478 25.8118 16.9093 26.4172 16.9093H27.88V14.9429H27.3656C27.0763 14.9429 26.878 14.8872 26.7602 14.7647C26.6476 14.6477 26.5887 14.4416 26.5887 14.163V8.49226C26.5887 7.63998 26.4226 6.90467 26.0957 6.28077C25.7635 5.65131 25.2491 5.1611 24.5472 4.81016C23.8453 4.45365 22.9505 4.27539 21.8628 4.27539C20.2446 4.27539 19.0015 4.65976 18.1442 5.42849C17.2815 6.19722 16.81 7.25561 16.7296 8.60924H18.964C19.0068 7.83494 19.2908 7.2389 19.8159 6.82111C20.341 6.40332 21.0322 6.19164 21.8896 6.19164C22.6236 6.19164 23.2237 6.35876 23.6953 6.68185C24.1668 7.01051 24.4079 7.47286 24.4079 8.06891C24.4079 8.53126 24.2632 8.8822 23.9685 9.1273C23.6738 9.3724 23.2345 9.49496 22.6504 9.49496H22.6451L22.629 9.5061Z" fill="#000000"/>
<path d="M31.9124 9.86094C31.9124 9.08664 32.0356 8.42375 32.2875 7.87227C32.5393 7.32079 32.8822 6.90858 33.3055 6.63562C33.7342 6.36267 34.2164 6.2234 34.7415 6.2234C35.4434 6.2234 36.0061 6.47965 36.4186 6.99213C36.8366 7.50462 37.0402 8.28449 37.0402 9.32618V16.9243H39.2317V9.86094C39.2317 9.06993 39.3603 8.40147 39.6175 7.86113C39.8747 7.31522 40.2176 6.90858 40.6463 6.63562C41.0749 6.36267 41.5464 6.2234 42.0608 6.2234C42.7788 6.2234 43.3414 6.47965 43.7594 6.99213C44.1773 7.50462 44.3809 8.28449 44.3809 9.32618V16.9243H46.5724V9.08107C46.5724 8.10066 46.4117 7.24281 46.0955 6.52421C45.7794 5.80005 45.3347 5.24856 44.7506 4.85863C44.1666 4.47426 43.4861 4.2793 42.6984 4.2793C41.8143 4.2793 41.0481 4.5244 40.4105 5.02017C39.7729 5.51038 39.296 6.17327 38.9852 7.00885H38.9423C38.6852 6.14542 38.2458 5.47696 37.6296 4.99789C37.0134 4.51883 36.274 4.28487 35.4167 4.28487C34.5593 4.28487 33.8574 4.50769 33.268 4.96447C32.6786 5.42125 32.2232 5.99501 31.891 6.6969H31.8481V4.64138H29.6995V16.9299H31.891V9.86651H31.9017L31.9124 9.86094Z" fill="#000000"/>
<path d="M51.7493 8.37919C52.0494 7.68845 52.478 7.15368 53.0353 6.76931C53.5925 6.39052 54.2355 6.20112 54.9696 6.20112C55.7037 6.20112 56.3681 6.39052 56.9253 6.76931C57.4826 7.14811 57.9166 7.68288 58.222 8.37919C58.5328 9.06993 58.6882 9.87209 58.6882 10.7801C58.6882 11.6881 58.5328 12.4902 58.222 13.181C57.9112 13.8717 57.4826 14.4065 56.9253 14.7908C56.3681 15.1696 55.7144 15.359 54.9696 15.359C54.2248 15.359 53.5925 15.1696 53.0353 14.7908C52.478 14.412 52.044 13.8773 51.7493 13.1865C51.4492 12.4958 51.2939 11.6936 51.2939 10.7856C51.2939 9.87766 51.4439 9.0755 51.7493 8.38476M51.2992 15.8102C51.2992 15.2309 51.2939 14.7797 51.2778 14.4733H51.3207C51.6636 15.3368 52.2155 16.0219 52.9763 16.5288C53.7318 17.0358 54.5999 17.292 55.5751 17.292C56.5502 17.292 57.4076 17.0413 58.2381 16.5288C59.0686 16.0219 59.7384 15.2755 60.2474 14.2951C60.7564 13.3091 61.0083 12.1393 61.0083 10.7856C61.0083 9.43202 60.7564 8.26221 60.2474 7.27623C59.7384 6.29025 59.0686 5.5438 58.2381 5.04246C57.4076 4.53554 56.5181 4.2793 55.5751 4.2793C54.632 4.2793 53.7372 4.52997 52.9763 5.04246C52.2155 5.54937 51.6636 6.23454 51.3207 7.09797H51.2778C51.2939 6.79717 51.2992 6.3571 51.2992 5.77776V4.63581H49.1292V21.3919H51.2992V15.8047V15.8102Z" fill="#000000"/>
<path d="M64.9354 16.691C65.5409 17.0865 66.2696 17.2871 67.1162 17.2871C67.9628 17.2871 68.729 17.0698 69.372 16.6464C70.015 16.2231 70.5133 15.5936 70.8562 14.758H70.8991V16.925H73.0477V4.63086H70.8562V11.4213C70.8562 12.3182 70.7169 13.0535 70.4383 13.6328C70.1597 14.2121 69.7846 14.6411 69.3184 14.9196C68.8523 15.1925 68.3325 15.3318 67.7646 15.3318C66.9769 15.3318 66.3607 15.0533 65.916 14.5074C65.4712 13.9559 65.2516 13.0757 65.2516 11.8725V4.63086H63.0601V12.112C63.0601 13.215 63.2208 14.1509 63.5477 14.9252C63.8745 15.6995 64.3353 16.2844 64.9461 16.6743L64.9354 16.691Z" fill="#000000"/>
<path d="M82.6758 16.754C83.4099 16.4086 83.9618 15.924 84.3529 15.3113C84.7387 14.6985 84.9316 13.9966 84.9316 13.2112C84.9316 12.1528 84.5833 11.2893 83.8921 10.6097C83.1955 9.93014 82.1989 9.59034 80.8915 9.59034H79.493C78.8875 9.59034 78.4267 9.46222 78.0945 9.21155C77.7623 8.96087 77.6016 8.58208 77.6016 8.06959C77.6016 7.49026 77.8106 7.02791 78.2338 6.69368C78.6571 6.35945 79.2305 6.19233 79.9431 6.19233C80.7468 6.19233 81.3523 6.40401 81.7703 6.81623C82.1882 7.23402 82.4132 7.83006 82.4561 8.60436H84.7119C84.6851 7.74093 84.4815 6.98334 84.1064 6.32602C83.7367 5.67428 83.1955 5.16179 82.4829 4.80528C81.7703 4.44876 80.9237 4.27051 79.9377 4.27051C78.9518 4.27051 78.1481 4.43762 77.4515 4.77185C76.755 5.10608 76.2245 5.56844 75.8494 6.15891C75.4797 6.74938 75.2922 7.41227 75.2922 8.15872C75.2922 9.20041 75.6351 10.036 76.321 10.6599C77.0068 11.2893 77.9445 11.5957 79.134 11.5957H80.42C81.1648 11.5957 81.7167 11.7406 82.0757 12.0302C82.4347 12.3199 82.6115 12.7321 82.6115 13.2669C82.6115 13.6847 82.5097 14.0523 82.3007 14.3754C82.0917 14.6985 81.797 14.938 81.4113 15.0996C81.0255 15.2667 80.57 15.3447 80.0556 15.3447C79.2519 15.3447 78.6143 15.1441 78.132 14.7319C77.6498 14.3197 77.3872 13.6902 77.3497 12.8435H75.0725C75.1154 13.7404 75.3351 14.5202 75.7369 15.1887C76.1388 15.8572 76.7068 16.3752 77.4462 16.7317C78.1803 17.0882 79.0536 17.2665 80.061 17.2665C81.0683 17.2665 81.931 17.0882 82.6651 16.7429H82.6704L82.6758 16.754Z" fill="#000000"/>
<path d="M53.4572 26.8186C44.3429 20.6465 32.8603 28.0998 28.3434 31.5925C28.0273 31.8376 27.7111 32.0827 27.395 32.3334C24.4908 34.6062 21.4903 36.9569 18.1521 37.3469C16.2767 37.5641 14.3692 37.1686 12.3545 36.7508C11.4758 36.567 10.5649 36.3776 9.65401 36.2439C6.75523 35.8094 2.76338 35.9264 0.20752 38.9345L2.11504 40.795C4.00648 38.5668 7.43036 38.7005 9.30037 38.979C10.1416 39.1072 10.9775 39.2798 11.8616 39.4637C13.9781 39.9037 16.1696 40.3605 18.4361 40.0931C22.4601 39.6196 25.7447 37.0516 28.9221 34.5672C29.2328 34.3221 29.549 34.077 29.8598 33.8375C33.9481 30.6734 44.3054 23.883 52.0855 29.1527C56.2596 31.9825 58.4832 37.5975 60.2782 42.1876H63.0698L62.6519 41.1682C60.7283 36.2383 58.3332 30.1052 53.4679 26.813H53.4733L53.4572 26.8186Z" fill="#000000"/>
<path d="M53.4572 26.8186C44.3429 20.6465 32.8603 28.0998 28.3434 31.5925C28.0273 31.8376 27.7111 32.0827 27.395 32.3334C24.4908 34.6062 21.4903 36.9569 18.1521 37.3469C16.2767 37.5641 14.3692 37.1686 12.3545 36.7508C11.4758 36.567 10.5649 36.3776 9.65401 36.2439C6.75523 35.8094 2.76338 35.9264 0.20752 38.9345L2.11504 40.795C4.00648 38.5668 7.43036 38.7005 9.30037 38.979C10.1416 39.1072 10.9775 39.2798 11.8616 39.4637C13.9781 39.9037 16.1696 40.3605 18.4361 40.0931C22.4601 39.6196 25.7447 37.0516 28.9221 34.5672C29.2328 34.3221 29.549 34.077 29.8598 33.8375C33.9481 30.6734 44.3054 23.883 52.0855 29.1527C56.2596 31.9825 58.4832 37.5975 60.2782 42.1876H63.0698L62.6519 41.1682C60.7283 36.2383 58.3332 30.1052 53.4679 26.813H53.4733L53.4572 26.8186Z" fill="#000000"/>
<path d="M159.953 15.1589C159.176 15.1589 158.603 14.9696 158.233 14.5908C157.858 14.2064 157.676 13.7218 157.676 13.1257C157.676 12.5575 157.869 12.0896 158.26 11.7164C158.646 11.3432 159.24 11.1482 160.05 11.137L160.976 11.1148C161.652 11.1148 162.187 11.0089 162.579 10.8028C162.97 10.5911 163.27 10.2736 163.473 9.83912H163.516V11.137C163.516 12.0172 163.35 12.7581 163.018 13.3652C162.686 13.9724 162.252 14.4236 161.716 14.7189C161.18 15.0197 160.591 15.1645 159.958 15.1645L159.953 15.1589ZM163.575 14.2621H163.618V14.8916C163.618 15.4598 163.79 15.9054 164.127 16.2341C164.465 16.5627 164.936 16.7298 165.542 16.7298H167.004V14.7579H166.49C166.201 14.7579 166.002 14.6966 165.885 14.5796C165.772 14.4626 165.713 14.2565 165.713 13.978V8.29051C165.713 7.4438 165.547 6.69735 165.215 6.07345C164.883 5.44399 164.368 4.95378 163.661 4.59727C162.959 4.23519 162.059 4.0625 160.966 4.0625C159.342 4.0625 158.099 4.44686 157.236 5.21559C156.374 5.98432 155.902 7.04829 155.817 8.4075H158.056C158.099 7.63319 158.383 7.03715 158.908 6.61936C159.433 6.20157 160.125 5.9899 160.987 5.9899C161.721 5.9899 162.321 6.15144 162.798 6.48567C163.275 6.81433 163.511 7.27668 163.511 7.87273C163.511 8.33508 163.361 8.69159 163.072 8.93669C162.777 9.1818 162.337 9.30992 161.748 9.30992H159.873C158.581 9.30992 157.504 9.63301 156.652 10.2736C155.8 10.9142 155.372 11.8891 155.372 13.187C155.372 14.0114 155.549 14.7189 155.897 15.3149C156.251 15.911 156.733 16.3622 157.349 16.6574C157.965 16.9582 158.656 17.1031 159.417 17.1031C160.376 17.1031 161.223 16.8635 161.941 16.39C162.659 15.911 163.206 15.2147 163.581 14.2844L163.575 14.2621Z" fill="#000000"/>
<path d="M175.205 6.38114V4.40918H174.064C173.233 4.40918 172.596 4.57629 172.156 4.9161C171.717 5.25033 171.347 5.77952 171.047 6.49812H171.004V4.41475H168.85V16.7311H171.047V9.74015C171.047 8.60377 171.267 7.76263 171.696 7.20557C172.124 6.65409 172.805 6.37557 173.742 6.37557H175.205V6.38114Z" fill="#000000"/>
<path d="M178.181 13.4553C178.181 14.5304 178.444 15.3437 178.979 15.8952C179.51 16.4467 180.303 16.7252 181.348 16.7252H184.172V14.7533H181.803C181.326 14.7533 180.978 14.6363 180.737 14.4079C180.501 14.1795 180.378 13.8063 180.378 13.2993V6.38078H184.064V4.40882H180.378V1.0498H178.181V4.40882H175.834V6.38078H178.181V13.4609V13.4553Z" fill="#000000"/>
</svg>
