<svg width="116" height="48" viewBox="0 0 116 48" fill="none" xmlns="http://www.w3.org/2000/svg">
<g clip-path="url(#clip0_1181_4198)">
<path d="M48.131 12.8379H49.7374L51.2536 15.4252L52.7699 12.8379H54.3762V19.1281H53.1039V14.6522L51.7043 16.9712H50.8083L49.4087 14.6522V19.1281H48.1363V12.8379H48.131Z" fill="#221D20"/>
<path d="M56.1203 12.8379H57.3927V19.1281H56.1203V12.8379Z" fill="#221D20"/>
<path d="M59.1531 12.8379H60.7859L63.5931 17.3404V12.8379H64.8655V19.1281H63.2326L60.4254 14.607V19.1281H59.1531V12.8379Z" fill="#221D20"/>
<path d="M66.6226 12.8379H67.895V19.1281H66.6226V12.8379Z" fill="#221D20"/>
<path d="M70.013 17.4051C70.3894 17.8912 70.8931 18.1781 71.402 18.1781C71.911 18.1781 72.2105 17.9098 72.2105 17.4503C72.2105 16.3266 69.3397 16.579 69.3397 14.4831C69.3397 13.4843 70.1561 12.6582 71.349 12.6582C72.29 12.6582 73.0163 13.0806 73.5465 13.7181L72.6134 14.5548C72.245 14.0794 71.8341 13.7739 71.3569 13.7739C70.9169 13.7739 70.6306 14.0608 70.6306 14.43C70.6306 15.5536 73.5014 15.2933 73.5014 17.4237C73.4829 18.5925 72.5684 19.3124 71.4206 19.3124C70.3629 19.3124 69.6446 18.9272 69.0879 18.2604L70.013 17.4078V17.4051Z" fill="#221D20"/>
<path d="M74.1482 12.8379H79.296V13.9961H77.3583V19.1281H76.0859V13.9961H74.1482V12.8379Z" fill="#221D20"/>
<path d="M80.4175 12.8372H84.0756V13.9236H81.6899V15.3793H83.7177V16.4658H81.6899V18.0383H84.0756V19.1248H80.4175V12.8345V12.8372ZM80.5262 11.084H81.8357L82.8482 12.2979H81.6819L80.5262 11.084Z" fill="#221D20"/>
<path d="M85.557 12.8379H87.4762C88.8572 12.8379 89.7108 13.5471 89.7108 14.7159C89.7108 15.4703 89.3423 16.0361 88.7061 16.3416L90.6783 19.1281H89.1541L87.4868 16.5833H86.832V19.1281H85.5597V12.8379H85.557ZM86.832 13.927V15.4996H87.5504C88.0885 15.4996 88.4013 15.2127 88.4013 14.7C88.4013 14.2245 88.0885 13.927 87.5504 13.927H86.832Z" fill="#221D20"/>
<path d="M91.4683 12.8386H95.1263V13.925H92.7406V15.3807H94.7685V16.4672H92.7406V18.0397H95.1263V19.1262H91.4683V12.8359V12.8386Z" fill="#221D20"/>
<path d="M48.131 21.9102H50.5962C52.587 21.9102 53.9336 23.3579 53.9336 25.0553C53.9336 26.7527 52.587 28.2004 50.5962 28.2004H48.131V21.9102ZM49.4034 23.071V27.0422H50.6148C51.7811 27.0422 52.6241 26.1709 52.6241 25.0553C52.6241 23.9396 51.7811 23.0683 50.6148 23.0683H49.4034V23.071Z" fill="#221D20"/>
<path d="M55.161 21.9109H58.819V22.9973H56.4333V24.453H58.4612V25.5394H56.4333V27.112H58.819V28.1984H55.161V21.9082V21.9109Z" fill="#221D20"/>
<path d="M62.6333 21.9102H63.9056V27.0422H66.2913V28.2004H62.6333V21.9102Z" fill="#221D20"/>
<path d="M69.2709 21.9102H70.9382L73.3159 28.2004H71.9614L71.3597 26.5641H68.8494L68.2477 28.2004H66.8931L69.2709 21.9102ZM70.9647 25.4803L70.1032 23.1161L69.2417 25.4803H70.9647Z" fill="#221D20"/>
<path d="M81.0533 26.3253L82.058 27.0983C81.4828 27.8792 80.5524 28.3839 79.4125 28.3839C77.4297 28.3839 76.0752 26.8565 76.0752 25.0582C76.0752 23.2598 77.4297 21.7324 79.4125 21.7324C80.5524 21.7324 81.4854 22.2451 82.058 23.0075L81.0533 23.7884C80.6955 23.2758 80.1309 22.9251 79.4125 22.9251C78.2276 22.9251 77.3847 23.8522 77.3847 25.0555C77.3847 26.2588 78.2276 27.1859 79.4125 27.1859C80.1309 27.1859 80.6955 26.8353 81.0533 26.3226V26.3253Z" fill="#221D20"/>
<path d="M86.7951 21.9102H88.0675V25.738C88.0675 27.3929 87.1 28.381 85.5201 28.381C83.9402 28.381 82.9833 27.3929 82.9833 25.738V21.9102H84.2557V25.8469C84.2557 26.6916 84.7302 27.1857 85.5281 27.1857C86.3259 27.1857 86.7925 26.6916 86.7925 25.8469V21.9102H86.7951Z" fill="#221D20"/>
<path d="M89.6473 21.9102H90.9197V27.0422H93.3054V28.2004H89.6473V21.9102Z" fill="#221D20"/>
<path d="M93.0455 21.9102H98.1933V23.0683H96.2556V28.2004H94.9832V23.0683H93.0455V21.9102Z" fill="#221D20"/>
<path d="M103.02 21.9102H104.293V25.738C104.293 27.3929 103.325 28.381 101.745 28.381C100.166 28.381 99.206 27.3929 99.206 25.738V21.9102H100.478V25.8469C100.478 26.6916 100.953 27.1857 101.751 27.1857C102.549 27.1857 103.015 26.6916 103.015 25.8469V21.9102H103.02Z" fill="#221D20"/>
<path d="M105.873 21.9102H107.792C109.173 21.9102 110.024 22.6194 110.024 23.7882C110.024 24.5426 109.655 25.1084 109.019 25.4139L110.991 28.2004H109.467L107.8 25.6556H107.145V28.2004H105.873V21.9102ZM107.145 22.9993V24.5718H107.863C108.402 24.5718 108.714 24.2849 108.714 23.7723C108.714 23.2968 108.402 22.9993 107.863 22.9993H107.145Z" fill="#221D20"/>
<path d="M111.784 21.9109H115.442V22.9973H113.056V24.453H115.084V25.5394H113.056V27.112H115.442V28.1984H111.784V21.9082V21.9109Z" fill="#221D20"/>
<path d="M68.5583 45.5746C68.728 45.5746 68.8764 45.7048 68.7969 46.0315L68.0043 46.2148C68.1421 45.8455 68.3728 45.5746 68.5557 45.5746M68.9957 46.8523H68.8393C68.6405 47.0887 68.4284 47.272 68.219 47.272C68.0096 47.272 67.893 47.1418 67.893 46.8523C67.893 46.7328 67.9062 46.6132 67.9301 46.5017L69.2051 46.082C69.4543 45.4922 69.1547 45.2319 68.8048 45.2319C68.2031 45.2319 67.5166 46.2413 67.5166 47.1286C67.5166 47.5244 67.7048 47.7422 67.999 47.7422C68.3436 47.7422 68.7041 47.4048 68.9983 46.8523M68.7439 44.9955L69.6425 44.1561V44.0605H69.16L68.6087 44.9982H68.7465L68.7439 44.9955ZM65.9897 45.5879H66.4138L65.7406 47.4287C65.6796 47.5854 65.7644 47.7422 65.9235 47.7422C66.3052 47.7422 66.9228 47.365 67.1375 46.847H67.0182C66.8486 47.0276 66.5199 47.2667 66.2415 47.3172L66.8592 45.5879H67.4901L67.5696 45.3249H66.9573L67.1932 44.6608H66.9493L66.5119 45.3249L65.9924 45.3993V45.5879H65.9897ZM65.4198 45.5002C65.4702 45.3302 65.3562 45.2319 65.2687 45.2319C64.9003 45.2319 64.4629 45.564 64.2879 46.0288H64.4072C64.5265 45.8588 64.7306 45.6702 64.9188 45.6357L64.2137 47.4712C64.1501 47.6412 64.2773 47.7395 64.3648 47.7395C64.7147 47.7395 65.1256 47.4022 65.3005 46.9426H65.1812C65.062 47.1126 64.8578 47.3012 64.6696 47.3357L65.4198 45.5002ZM65.5497 44.5758C65.7167 44.5758 65.8545 44.443 65.8545 44.2703C65.8545 44.0977 65.7167 43.9648 65.5497 43.9648C65.3827 43.9648 65.2449 44.103 65.2449 44.2703C65.2449 44.4377 65.3774 44.5758 65.5497 44.5758ZM61.494 47.3995C61.4012 47.6067 61.4993 47.7422 61.7008 47.7422C61.8254 47.7422 61.881 47.7103 61.9314 47.5748L62.4191 46.2785C62.6445 46.0023 63.1083 45.7074 63.2939 45.7074C63.4264 45.7074 63.4079 45.819 63.3204 45.9837L62.5702 47.4287C62.496 47.5722 62.5941 47.7422 62.7531 47.7422C63.1216 47.7422 63.559 47.4101 63.7339 46.9453H63.6146C63.4954 47.1153 63.2912 47.3039 63.103 47.3384L63.7472 46.0341C63.8293 45.8668 63.8718 45.7101 63.8718 45.5879C63.8718 45.3754 63.7525 45.2372 63.5298 45.2372C63.2117 45.2372 62.891 45.5958 62.5066 46.0395V45.6968C62.5066 45.4524 62.4271 45.2346 62.2071 45.2346C62.0692 45.2346 61.9367 45.3541 61.8121 45.5241V45.5693C62.0507 45.556 62.1567 45.9146 61.9871 46.2945L61.4887 47.4022L61.494 47.3995ZM61.4834 45.7951C61.5709 45.4949 61.5258 45.2319 61.2952 45.2319C61.0248 45.2319 60.9533 45.4391 60.6776 46.0341V45.6915C60.6776 45.4471 60.5981 45.2293 60.3781 45.2293C60.1209 45.2293 59.885 45.6304 59.7048 46.0262H59.824C59.9486 45.8455 60.0626 45.7393 60.1554 45.7393C60.2667 45.7393 60.325 45.9093 60.1554 46.2892L59.657 47.3968C59.5643 47.604 59.6623 47.7395 59.8638 47.7395C59.9884 47.7395 60.0441 47.7076 60.0944 47.5722L60.5822 46.2759C60.72 46.1059 60.8446 45.9571 61.001 45.7924H61.4808L61.4834 45.7951ZM58.6577 45.5746C58.8274 45.5746 58.9758 45.7048 58.8963 46.0315L58.1037 46.2148C58.2415 45.8455 58.4722 45.5746 58.6551 45.5746M59.0951 46.8523H58.9387C58.7399 47.0887 58.5278 47.272 58.3184 47.272C58.109 47.272 57.9924 47.1418 57.9924 46.8523C57.9924 46.7328 58.0056 46.6132 58.0295 46.5017L59.3045 46.082C59.5537 45.4922 59.2541 45.2319 58.9042 45.2319C58.3025 45.2319 57.616 46.2413 57.616 47.1286C57.616 47.5244 57.8042 47.7422 58.0984 47.7422C58.443 47.7422 58.8035 47.4048 59.0977 46.8523M56.0891 45.5879H56.5132L55.8399 47.4287C55.779 47.5854 55.8638 47.7422 56.0228 47.7422C56.4046 47.7422 57.0222 47.365 57.2369 46.847H57.1176C56.948 47.0276 56.6193 47.2667 56.3409 47.3172L56.9586 45.5879H57.5894L57.669 45.3249H57.0566L57.2926 44.6608H57.0487L56.6113 45.3249L56.0918 45.3993V45.5879H56.0891ZM53.7644 47.0223C53.7644 46.4538 54.3953 45.6835 54.7505 45.6835C54.83 45.6835 54.9016 45.6915 54.9678 45.7101L54.5994 46.6929C54.3873 46.9506 54.0613 47.264 53.9102 47.264C53.8227 47.264 53.767 47.1897 53.767 47.0196M55.7021 45.1257L55.5086 45.1124L55.2912 45.3249H55.2462C54.1965 45.3249 53.2899 46.507 53.2899 47.365C53.2899 47.604 53.4383 47.7422 53.6663 47.7422C53.9367 47.7422 54.2044 47.3543 54.504 46.94L54.4907 47.0887C54.4536 47.5137 54.5835 47.7448 54.8035 47.7448C55.0606 47.7448 55.2965 47.3437 55.4768 46.9479H55.3575C55.2329 47.1286 55.1189 47.2348 55.0262 47.2348C54.9307 47.2348 54.8592 47.0595 55.0262 46.6849L55.7021 45.131V45.1257ZM53.4649 45.7951C53.5523 45.4949 53.5073 45.2319 53.2766 45.2319C53.0063 45.2319 52.9347 45.4391 52.659 46.0341V45.6915C52.659 45.4471 52.5795 45.2293 52.3595 45.2293C52.1024 45.2293 51.8664 45.6304 51.6862 46.0262H51.8055C51.9301 45.8455 52.044 45.7393 52.1368 45.7393C52.2482 45.7393 52.3065 45.9093 52.1368 46.2892L51.6385 47.3968C51.5457 47.604 51.6438 47.7395 51.8452 47.7395C51.9698 47.7395 52.0255 47.7076 52.0759 47.5722L52.5636 46.2759C52.7014 46.1059 52.826 45.9571 52.9824 45.7924H53.4622L53.4649 45.7951ZM49.9393 47.6492L49.9844 47.5058C49.3721 47.3915 49.2952 47.3915 49.5391 46.7221L49.7882 46.0341H50.4642C50.769 46.0341 50.7717 46.159 50.7266 46.491H50.9016L51.3071 45.3807H51.1322C50.9811 45.6437 50.8618 45.8376 50.5305 45.8376H49.8625L50.2177 44.8653C50.329 44.5572 50.3926 44.4908 50.8061 44.4908H51.1004C51.5271 44.4908 51.5802 44.605 51.5802 45.0407H51.7498L51.8929 44.2836H49.3509L49.3058 44.427C49.7988 44.528 49.8439 44.5758 49.6133 45.2107L49.0619 46.7248C48.8313 47.357 48.7359 47.4075 48.1686 47.5084L48.1262 47.6519H49.9393V47.6492Z" fill="#221D20"/>
<path d="M62.3953 39.8075C62.5649 39.8075 62.7134 39.9377 62.6339 40.2644L61.8413 40.4477C61.9791 40.0785 62.2097 39.8075 62.3926 39.8075M62.8327 41.0852H62.6763C62.4775 41.3216 62.2654 41.5049 62.056 41.5049C61.8466 41.5049 61.7299 41.3748 61.7299 41.0852C61.7299 40.9657 61.7432 40.8461 61.7671 40.7346L63.0421 40.3149C63.2912 39.7252 62.9917 39.4648 62.6418 39.4648C62.0401 39.4648 61.3535 40.4743 61.3535 41.3615C61.3535 41.7573 61.5417 41.9751 61.836 41.9751C62.1806 41.9751 62.5411 41.6377 62.8353 41.0852M62.5808 39.2311L63.4794 38.3917V38.296H62.997L62.4456 39.2337H62.5835L62.5808 39.2311ZM59.8267 39.8208H60.2508L59.5775 41.6616C59.5166 41.8184 59.6014 41.9751 59.7604 41.9751C60.1421 41.9751 60.7598 41.5979 60.9745 41.0799H60.8552C60.6855 41.2605 60.3568 41.4996 60.0785 41.5501L60.6961 39.8208H61.327L61.4065 39.5578H60.7942L61.0301 38.8937H60.7863L60.3489 39.5578L59.8293 39.6322V39.8208H59.8267ZM59.2568 39.7331C59.3071 39.5631 59.1932 39.4648 59.1057 39.4648C58.7372 39.4648 58.2999 39.7969 58.1249 40.2617H58.2442C58.3635 40.0917 58.5676 39.9031 58.7558 39.8686L58.0507 41.7041C57.9871 41.8741 58.1143 41.9724 58.2018 41.9724C58.5517 41.9724 58.9625 41.6351 59.1375 41.1755H59.0182C58.8989 41.3455 58.6948 41.5341 58.5066 41.5687L59.2568 39.7331ZM59.3867 38.8114C59.5537 38.8114 59.6915 38.6786 59.6915 38.5059C59.6915 38.3332 59.5537 38.2004 59.3867 38.2004C59.2197 38.2004 59.0818 38.3385 59.0818 38.5059C59.0818 38.6732 59.2144 38.8114 59.3867 38.8114ZM56.9374 41.5687L58.2203 38.1978L58.1779 38.1473L57.3721 38.2403V38.3359L57.5285 38.4554C57.6716 38.567 57.6239 38.6732 57.4967 39.0133L56.492 41.6616C56.4178 41.8051 56.5159 41.9751 56.6749 41.9751C57.0434 41.9751 57.4357 41.643 57.6107 41.1782H57.4914C57.3721 41.3482 57.1229 41.5368 56.9347 41.5713M54.496 41.2552C54.496 40.6868 55.1269 39.9164 55.4821 39.9164C55.5616 39.9164 55.6332 39.9244 55.6994 39.943L55.331 40.9258C55.1189 41.1835 54.7929 41.4969 54.6418 41.4969C54.5543 41.4969 54.4987 41.4226 54.4987 41.2526M56.4337 39.3586L56.2402 39.3453L56.0228 39.5578H55.9778C54.9281 39.5578 54.0215 40.7399 54.0215 41.5979C54.0215 41.837 54.17 41.9751 54.3979 41.9751C54.6683 41.9751 54.936 41.5873 55.2356 41.1729L55.2223 41.3216C55.1852 41.7466 55.3151 41.9777 55.5351 41.9777C55.7922 41.9777 56.0281 41.5766 56.2084 41.1808H56.0891C55.9645 41.3615 55.8505 41.4677 55.7578 41.4677C55.6623 41.4677 55.5908 41.2924 55.7578 40.9179L56.4337 39.3639V39.3586ZM51.7498 42.4214C51.7498 42.177 51.9857 42.0256 52.3197 41.8901C52.4311 41.9459 52.5954 42.0043 52.8181 42.0787C53.168 42.1929 53.3005 42.2407 53.3005 42.347C53.3005 42.5728 52.9188 42.7428 52.3992 42.7428C51.9619 42.7428 51.7498 42.6498 51.7498 42.4187M52.7014 40.9338C52.5503 40.9338 52.4894 40.8036 52.4894 40.6575C52.4894 40.2458 52.7094 39.6428 53.0566 39.6428C53.2077 39.6428 53.2687 39.773 53.2687 39.9191C53.2687 40.3308 53.0487 40.9338 52.7014 40.9338ZM53.7008 42.1956C53.7008 41.9007 53.4383 41.7945 53.0116 41.6643C52.6431 41.5527 52.4788 41.5209 52.4788 41.4013C52.4788 41.3057 52.5583 41.1888 52.7147 41.1065C53.3164 41.0746 53.7087 40.53 53.7087 40.0731C53.7087 39.9775 53.6902 39.8925 53.6584 39.8181H54.17L54.2495 39.5552H53.4383C53.3429 39.4941 53.2263 39.4622 53.1123 39.4622C52.4735 39.4622 52.0573 40.0253 52.0573 40.4822C52.0573 40.8275 52.2773 41.0454 52.545 41.0958C52.2455 41.2287 52.0812 41.3854 52.0812 41.5713C52.0812 41.6776 52.1183 41.752 52.2057 41.821C51.5165 42.0229 51.2435 42.254 51.2435 42.5834C51.2435 42.9128 51.6623 43.035 52.1607 43.035C53.0036 43.035 53.7061 42.5781 53.7061 42.1956M50.4827 40.2219C50.7876 40.2219 50.7902 40.3467 50.7452 40.6788H50.9201L51.3257 39.5684H51.1507C50.9996 39.8314 50.8804 40.0253 50.549 40.0253H49.881L50.2177 39.0983C50.329 38.7901 50.3926 38.729 50.8061 38.729H51.1004C51.5271 38.729 51.5802 38.8433 51.5802 39.2736H51.7498L51.8929 38.5165H49.3509L49.3058 38.66C49.7988 38.7609 49.8439 38.8087 49.6133 39.4436L49.0619 40.9577C48.8313 41.5899 48.7359 41.6404 48.1686 41.7413L48.1262 41.8848H50.9519L51.4582 41.0826H51.2647C50.9413 41.388 50.5384 41.6776 49.9711 41.6776C49.221 41.6776 49.2899 41.6457 49.5391 40.9577L49.8068 40.2246H50.4827V40.2219ZM50.8512 38.2907L51.7498 37.6718V37.5762H51.2064L50.7081 38.2907H50.8512Z" fill="#221D20"/>
<path d="M62.0957 34.0411C62.2654 34.0411 62.4138 34.1712 62.3343 34.498L61.5417 34.6813C61.6796 34.312 61.9102 34.0411 62.0931 34.0411M62.5331 35.3188H62.3767C62.1779 35.5552 61.9659 35.7385 61.7564 35.7385C61.547 35.7385 61.4304 35.6083 61.4304 35.3188C61.4304 35.1992 61.4437 35.0797 61.4675 34.9681L62.7425 34.5484C62.9917 33.9587 62.6922 33.6984 62.3423 33.6984C61.7405 33.6984 61.054 34.7078 61.054 35.595C61.054 35.9908 61.2422 36.2087 61.5364 36.2087C61.881 36.2087 62.2415 35.8713 62.5358 35.3188M62.2813 33.4647L63.1799 32.6252V32.5296H62.6975L62.1461 33.4673H62.2839L62.2813 33.4647ZM59.6438 34.0544H59.9804L59.3071 35.8952C59.2462 36.0519 59.331 36.2087 59.49 36.2087C59.8718 36.2087 60.4894 35.8315 60.7041 35.3135H60.5848C60.4152 35.4941 60.0865 35.7332 59.8081 35.7836L60.4258 34.0544H61.0566L61.1362 33.7914H60.5238L60.7598 33.1273H60.5159L60.0785 33.7914L59.6464 33.8658V34.0544H59.6438ZM59.3124 34.2642C59.3999 33.964 59.3549 33.7011 59.1242 33.7011C58.8539 33.7011 58.7823 33.9083 58.5066 34.5033V34.1606C58.5066 33.9162 58.4271 33.6984 58.2071 33.6984C57.9499 33.6984 57.714 34.0995 57.5338 34.4953H57.6531C57.7776 34.3147 57.8916 34.2084 57.9844 34.2084C58.0957 34.2084 58.1541 34.3784 57.9844 34.7583L57.4861 35.866C57.3933 36.0732 57.4914 36.2087 57.6928 36.2087C57.8174 36.2087 57.8731 36.1768 57.9234 36.0413L58.4112 34.745C58.549 34.575 58.6736 34.4263 58.83 34.2616H59.3098L59.3124 34.2642ZM56.4867 34.0411C56.6564 34.0411 56.8048 34.1712 56.7253 34.498L55.9327 34.6813C56.0706 34.312 56.3012 34.0411 56.4841 34.0411M56.9241 35.3188H56.7677C56.5689 35.5552 56.3568 35.7385 56.1474 35.7385C55.938 35.7385 55.8214 35.6083 55.8214 35.3188C55.8214 35.1992 55.8346 35.0797 55.8585 34.9681L57.1335 34.5484C57.3827 33.9587 57.0831 33.6984 56.7332 33.6984C56.1315 33.6984 55.445 34.7078 55.445 35.595C55.445 35.9908 55.6332 36.2087 55.9274 36.2087C56.272 36.2087 56.6325 35.8713 56.9268 35.3188M53.7962 35.8368C53.6716 35.8368 53.4914 35.7225 53.4914 35.6189C53.4914 35.5871 53.547 35.4436 53.6159 35.263L53.8227 34.7131C54.0427 34.4502 54.3794 34.1686 54.5676 34.1686C54.6816 34.1686 54.769 34.243 54.769 34.413C54.769 34.915 54.2998 35.8341 53.7935 35.8341M55.2462 34.2111C55.2462 33.8365 55.1083 33.6984 54.8512 33.6984C54.5278 33.6984 54.2256 34.0411 53.9208 34.4555L54.6895 32.4313L54.6471 32.3809L53.8413 32.4738V32.5695L53.9977 32.689C54.1408 32.8006 54.0931 32.9148 53.9658 33.2468L53.1362 35.3878C53.0752 35.5446 53.0036 35.7305 53.0036 35.781C53.0036 36.0015 53.3032 36.2087 53.5735 36.2087C54.1991 36.2087 55.2435 35.0797 55.2435 34.2111M52.7438 33.9667C52.7942 33.7967 52.6802 33.6984 52.5928 33.6984C52.2243 33.6984 51.7869 34.0305 51.612 34.4953H51.7313C51.8505 34.3253 52.0546 34.1367 52.2429 34.1022L51.5377 35.9377C51.4741 36.1077 51.6014 36.206 51.6888 36.206C52.0387 36.206 52.4496 35.8686 52.6246 35.4091H52.5053C52.386 35.5791 52.1819 35.7677 51.9937 35.8022L52.7438 33.9667ZM52.8711 33.0449C53.0381 33.0449 53.1759 32.9121 53.1759 32.7395C53.1759 32.5668 53.0381 32.434 52.8711 32.434C52.7041 32.434 52.5662 32.5721 52.5662 32.7395C52.5662 32.9068 52.6988 33.0449 52.8711 33.0449ZM51.0182 32.7501H49.3429L49.2979 32.8935C49.7909 32.9945 49.836 33.0423 49.6053 33.6772L49.0619 35.1913C48.8313 35.8235 48.7359 35.874 48.1686 35.9749L48.1262 36.1183H50.6762L51.2276 35.1302H51.0341C50.7213 35.4755 50.3529 35.9085 49.7856 35.9085C49.3588 35.9085 49.3058 35.8341 49.5364 35.1886L50.0798 33.6745C50.3051 33.0423 50.4059 32.9918 50.9731 32.8909L51.0155 32.7474L51.0182 32.7501Z" fill="#221D20"/>
<path d="M57.5864 7.67661C57.6765 7.58629 57.7667 7.49066 57.8568 7.39504C58.0238 7.20643 58.1881 7.02315 58.3816 6.85845C58.4399 6.80533 58.4983 6.76017 58.5539 6.72032C58.5698 6.70438 58.5698 6.67251 58.5857 6.65657C58.5062 6.68845 58.4585 6.7522 58.3816 6.78407C58.3657 6.78407 58.3498 6.76814 58.3657 6.7522C58.4214 6.7097 58.4771 6.6672 58.5354 6.62469C58.5327 6.62469 58.5274 6.62469 58.5248 6.62469C58.5089 6.62469 58.5089 6.60876 58.5089 6.59282C58.3048 6.56094 58.1457 6.70438 58.0052 6.82923C57.9734 6.84517 57.9416 6.81329 57.9257 6.81329C57.6898 6.89299 57.5148 7.09752 57.2789 7.19315V7.16128C57.1835 7.19315 57.0934 7.24894 56.9953 7.27284C56.8548 7.30472 56.7276 7.28878 56.6003 7.28878C56.4095 7.30738 56.2186 7.34988 56.0278 7.38972C56.0224 7.38972 56.0171 7.39238 56.0118 7.39504C55.9085 7.42426 55.813 7.46144 55.7176 7.51457C55.715 7.51457 55.7097 7.51988 55.707 7.51988C55.6991 7.53051 55.6911 7.53848 55.6832 7.54645C55.6487 7.58364 55.6195 7.61817 55.5745 7.64208C55.4764 7.69255 55.3995 7.77755 55.312 7.84662C55.3067 7.85193 55.2961 7.85458 55.2855 7.85458C55.2007 7.93693 55.1185 8.01928 55.0311 8.09897C55.0258 8.10428 55.0019 8.10694 54.9833 8.10428C54.986 8.09897 54.9886 8.09366 54.9913 8.08834C55.0046 8.06709 55.0178 8.04319 55.0311 8.02193C55.047 7.99803 55.0629 7.97412 55.0788 7.94756C55.1 7.91568 55.1212 7.8838 55.145 7.85193C55.1503 7.84396 55.1503 7.83599 55.145 7.83068C55.1397 7.82536 55.1318 7.82271 55.1238 7.82271C55.2034 7.74567 55.2961 7.68192 55.3889 7.62614C55.3889 7.62614 55.3889 7.62614 55.3889 7.62348C55.3783 7.62614 55.3624 7.61817 55.3704 7.60754C55.381 7.59426 55.3889 7.57832 55.3969 7.56504C55.3969 7.55973 55.3995 7.55442 55.4022 7.55176C55.3995 7.54645 55.3942 7.54379 55.3916 7.53848C55.3651 7.55442 55.3385 7.57035 55.3173 7.59161C55.2802 7.62614 55.2511 7.6952 55.1928 7.6952C55.1901 7.6952 55.1769 7.6952 55.1689 7.69255C55.1609 7.69255 55.1556 7.68989 55.153 7.68723C55.153 7.68723 55.153 7.68723 55.153 7.68458C55.153 7.68458 55.153 7.68192 55.153 7.67927C55.153 7.67927 55.153 7.67661 55.153 7.67395C55.153 7.66864 55.1583 7.66598 55.1609 7.66067C55.1609 7.65536 55.1663 7.6527 55.1689 7.64739C55.1689 7.64473 55.1742 7.63942 55.1742 7.63676C55.1769 7.62879 55.1822 7.62348 55.1848 7.61551C55.1875 7.6102 55.1901 7.60489 55.1928 7.60223C55.2007 7.59161 55.206 7.57832 55.214 7.5677C55.2166 7.56239 55.2193 7.55707 55.2246 7.55176C55.2299 7.54114 55.2352 7.53317 55.2405 7.52254C55.2484 7.50926 55.2405 7.49863 55.2299 7.49332C55.259 7.45613 55.2935 7.42426 55.3385 7.40035H55.3332C55.3942 7.37113 55.4552 7.33394 55.5135 7.29941C55.5215 7.29144 55.5321 7.28347 55.54 7.2755C55.4499 7.30472 55.3704 7.34722 55.2882 7.40035C55.2882 7.40035 55.267 7.40832 55.2617 7.41363C55.2617 7.41363 55.2431 7.4216 55.2219 7.40035C55.2219 7.39769 55.2193 7.39504 55.2193 7.38972C55.2352 7.35785 55.2829 7.34191 55.3147 7.31003C55.3306 7.31003 55.3465 7.31003 55.3465 7.32597C55.8501 6.93017 56.5446 7.0258 57.1278 6.82126C57.1755 6.78939 57.2232 6.75751 57.2683 6.72564C57.3478 6.69376 57.4088 6.61407 57.5042 6.56891C57.6315 6.47328 57.7242 6.36437 57.772 6.20499C57.772 6.18905 57.756 6.17311 57.756 6.17311C57.5519 6.39359 57.316 6.56891 57.0642 6.69376C56.7329 6.86642 56.3723 6.83455 56.0251 6.88236C56.041 6.85048 56.0728 6.85048 56.1046 6.85048C56.1046 6.80267 56.1364 6.78673 56.1682 6.75486H56.216C56.2319 6.75486 56.2319 6.72298 56.2478 6.72298C56.2796 6.72298 56.3273 6.70704 56.3114 6.70704C56.2637 6.64329 56.1709 6.75486 56.0914 6.70704C56.1232 6.67516 56.1073 6.62735 56.1391 6.61141H56.2027C56.2027 6.57954 56.2345 6.54766 56.2345 6.54766C56.4704 6.40687 56.6904 6.29531 56.9131 6.1678C56.8654 6.1678 56.8336 6.21562 56.7859 6.18374C56.8177 6.18374 56.7859 6.13593 56.8177 6.13593C56.99 6.08811 57.1331 5.99514 57.3054 5.93139C57.2418 5.93139 57.1941 5.9792 57.1331 5.93139C57.1649 5.91545 57.1808 5.88357 57.2285 5.88357V5.83576C57.2285 5.81982 57.2445 5.81982 57.2604 5.81982C57.2445 5.81982 57.2285 5.80388 57.2285 5.80388C57.2445 5.77201 57.2922 5.78794 57.324 5.75607C57.3081 5.75607 57.2763 5.75607 57.2763 5.74013C57.324 5.67638 57.4035 5.66044 57.4804 5.6445C57.4645 5.61262 57.4167 5.6445 57.4167 5.61262C57.4167 5.59669 57.4327 5.59669 57.4486 5.59669H57.4167C57.3849 5.58075 57.4008 5.54887 57.4008 5.53293C57.4963 5.42137 57.4963 5.28058 57.5413 5.15308C57.5254 5.15308 57.5095 5.15308 57.5095 5.13714C57.3531 5.3098 57.0987 5.37355 56.8627 5.4373H56.7832C56.7037 5.46918 56.595 5.46918 56.5155 5.42137C56.4519 5.38949 56.4201 5.34168 56.3591 5.29386C56.2319 5.21417 56.1073 5.15308 55.9641 5.10526C55.5692 4.97776 55.1609 4.91666 54.7501 4.9326C54.9224 4.83697 55.1132 4.829 55.3014 4.77587C55.5692 4.69618 55.821 4.60321 56.1046 4.61915C56.0569 4.60321 55.9933 4.61915 55.9482 4.61915C55.7282 4.60321 55.5082 4.66696 55.2696 4.71478C55.1132 4.74665 54.9701 4.81041 54.8137 4.84228C54.7183 4.87416 54.6732 4.96979 54.5619 4.95385V4.90603C54.7183 4.71743 54.9091 4.52618 55.1609 4.51024C55.4446 4.46242 55.7123 4.51024 55.9959 4.54211C56.2 4.55805 56.3909 4.60587 56.595 4.65368C56.6745 4.65368 56.6904 4.78119 56.7514 4.79447C56.8468 4.82634 56.9396 4.79447 57.035 4.85822C57.035 4.82634 57.0191 4.79447 57.035 4.76259C57.0987 4.69884 57.1755 4.77853 57.2391 4.74665C57.3664 4.66696 57.1278 4.52618 57.0668 4.41461C57.0668 4.39867 57.0828 4.38273 57.0828 4.38273C57.21 4.4943 57.3028 4.61915 57.4618 4.69884C57.5413 4.73072 57.7295 4.77853 57.6977 4.6829C57.6182 4.51024 57.4618 4.3668 57.3346 4.21007V4.14632C57.3028 4.14632 57.3028 4.13038 57.2869 4.11444V4.05069C57.2232 4.01881 57.2391 3.95506 57.2073 3.9099C57.1596 3.83021 57.1914 3.7213 57.1596 3.62567C57.1278 3.53004 57.1119 3.45301 57.096 3.35738C57.0483 3.08909 56.9847 2.85267 56.9555 2.60032C56.9237 2.30015 57.1278 2.06374 57.271 1.79545C57.3823 1.60685 57.5069 1.41559 57.711 1.29074C57.7587 1.10214 57.8833 0.942759 58.0105 0.786034C58.1351 0.631965 58.3445 0.538993 58.4956 0.469928C58.7156 0.371643 58.9144 0.310547 58.9144 0.310547H48.102V8.66477H55.7574C56.0569 8.44961 56.3564 8.34601 56.7753 8.13881C56.9741 8.04053 57.4247 7.83333 57.5784 7.67927L57.5864 7.67661ZM55.1636 6.545C55.1318 6.545 55.0682 6.56094 55.0841 6.52907C55.1 6.44937 55.2113 6.44937 55.2723 6.4175C55.3041 6.40156 55.3518 6.36968 55.3836 6.38562C55.4154 6.43344 55.4631 6.4175 55.4949 6.44938C55.3995 6.545 55.2749 6.49719 55.1636 6.545ZM52.7541 6.19968C52.7541 6.19968 52.7381 6.18374 52.7381 6.1678C52.9423 5.89951 53.1013 5.64716 53.2418 5.36293C53.4459 5.25136 53.6156 5.09198 53.7772 4.92197C54.045 4.63774 54.3286 4.38539 54.66 4.22867C54.7872 4.18085 54.9436 4.19679 55.0708 4.2446C55.0231 4.30836 54.9436 4.29242 54.8826 4.34023C54.8667 4.34023 54.8508 4.34023 54.8349 4.32429C54.8508 4.30836 54.8508 4.29242 54.8508 4.27648C54.6944 4.44914 54.4718 4.52883 54.3472 4.73337C54.2517 4.8901 54.1908 5.09729 53.984 5.14511C53.9204 5.16104 53.9999 5.09729 53.9681 5.11323C53.4804 5.4134 53.1331 5.77732 52.7541 6.20233V6.19968ZM54.0609 5.15573C54.045 5.18761 54.0264 5.19026 54.0132 5.21948C53.9973 5.25136 53.9814 5.2673 53.9496 5.28324C53.9336 5.28324 53.9177 5.28324 53.9177 5.2673C53.9336 5.20355 53.9814 5.13979 54.045 5.12651C54.0609 5.12651 54.0609 5.14245 54.0609 5.15839V5.15573ZM54.7925 7.52254C54.7845 7.54114 54.7686 7.55442 54.7527 7.5677C54.7713 7.57301 54.7872 7.58098 54.7739 7.59161C54.7368 7.62614 54.7024 7.65801 54.6547 7.67395C54.652 7.67395 54.6414 7.67395 54.6308 7.67661C54.6122 7.6952 54.591 7.7138 54.5725 7.73239C54.5539 7.74833 54.4664 7.7377 54.493 7.7138C54.5327 7.67927 54.5698 7.63942 54.6096 7.60489C54.6308 7.58364 54.6547 7.56504 54.6759 7.54113C54.6865 7.52785 54.6971 7.51723 54.7103 7.5066C54.7236 7.49863 54.8057 7.49066 54.7925 7.51988V7.52254ZM54.5089 7.39238C54.5089 7.39238 54.5089 7.39238 54.5062 7.39504C54.4479 7.43754 54.3896 7.48004 54.326 7.51457C54.2597 7.55442 54.1881 7.58364 54.1192 7.61551C54.1192 7.61551 54.1192 7.61551 54.1192 7.61286C54.1139 7.60489 54.1033 7.60223 54.0927 7.60754C54.0344 7.63942 53.9814 7.68192 53.9336 7.72974C53.9257 7.73771 53.9177 7.74302 53.9124 7.75099C53.9045 7.75896 53.8965 7.76692 53.8912 7.77224C53.8912 7.77224 53.8912 7.77224 53.8886 7.77489C53.878 7.78552 53.8674 7.79614 53.8541 7.81208C53.8462 7.82271 53.8435 7.82802 53.8329 7.83333C53.8223 7.83865 53.7958 7.83865 53.7985 7.82271C53.7985 7.82271 53.7985 7.82271 53.7985 7.82005C53.7879 7.82537 53.7799 7.83068 53.7693 7.83333C53.7613 7.83865 53.7534 7.8413 53.7454 7.84662C53.7428 7.84662 53.7375 7.84662 53.7348 7.84662C53.7295 7.84662 53.7269 7.84662 53.7242 7.84927C53.7057 7.86521 53.6871 7.88115 53.6686 7.89709C53.6368 7.92631 53.6049 7.96084 53.5784 7.99537C53.5784 7.99537 53.5784 7.99803 53.5758 8.00068C53.5758 8.00068 53.5731 8.006 53.5705 8.006C53.5705 8.006 53.5678 8.01131 53.5652 8.01131C53.5625 8.01662 53.5572 8.02193 53.5546 8.02725C53.5519 8.0299 53.5466 8.03256 53.5413 8.03256C53.5413 8.0299 53.536 8.02725 53.536 8.02193C53.536 8.02193 53.5334 8.01662 53.5307 8.01397C53.5254 8.006 53.5228 7.99803 53.5175 7.9874C53.5175 7.9874 53.5175 7.98209 53.5148 7.97943C53.5307 7.96084 53.5493 7.94224 53.5652 7.92365C53.5652 7.92365 53.5652 7.92365 53.5678 7.92099C53.5731 7.91302 53.5784 7.90771 53.5837 7.89974C53.5917 7.88912 53.6023 7.87849 53.6102 7.86521C53.6129 7.8599 53.6156 7.85724 53.6209 7.85193C53.6394 7.82802 53.6553 7.80677 53.6712 7.78552C53.6712 7.78286 53.6765 7.78021 53.6792 7.77489C53.6871 7.76427 53.6951 7.75364 53.7004 7.74036C53.7057 7.72974 53.711 7.71911 53.7189 7.70849C53.7189 7.70849 53.7189 7.70849 53.7189 7.70583C53.7189 7.70583 53.7189 7.70317 53.7189 7.70052C53.7242 7.68989 53.7295 7.67661 53.7348 7.66333C53.7348 7.66333 53.7348 7.66067 53.7348 7.65801C53.7348 7.65536 53.7348 7.65005 53.7375 7.64739C53.7375 7.64208 53.7401 7.63676 53.7428 7.62879C53.7428 7.62879 53.7428 7.62879 53.7428 7.62614C53.7428 7.61817 53.7481 7.6102 53.7481 7.60223C53.7481 7.59692 53.7481 7.59426 53.7481 7.59161C53.764 7.56239 53.7852 7.53317 53.8117 7.5066C53.8117 7.5066 53.8064 7.5066 53.8038 7.51192C53.7826 7.5252 53.7666 7.54645 53.7454 7.56239C53.7295 7.57567 53.6977 7.55442 53.7163 7.53848C53.7295 7.52785 53.7401 7.51723 53.7534 7.5066C53.7799 7.48004 53.8038 7.44816 53.8329 7.42691C53.8515 7.41363 53.8674 7.403 53.8806 7.38972C53.8806 7.38972 53.8859 7.38441 53.8886 7.38441C53.8992 7.37113 53.9124 7.35785 53.923 7.34456C54.0741 7.19847 54.3286 7.20644 54.5274 7.11346C54.6069 7.08159 54.6997 7.1294 54.7792 7.11346C54.827 7.11346 54.8747 7.11346 54.9197 7.14534C54.7792 7.22237 54.6467 7.31003 54.5195 7.38972L54.5089 7.39238ZM54.8323 6.29265C54.8163 6.27671 54.88 6.29265 54.8959 6.26077H54.7686C54.7527 6.26077 54.7527 6.24484 54.7527 6.2289C54.6732 6.24484 54.5804 6.27671 54.5009 6.29265C54.3896 6.32453 54.2968 6.40422 54.1696 6.43344C53.9973 6.49719 53.8541 6.63798 53.6659 6.70173C53.65 6.70173 53.65 6.68579 53.65 6.66985C53.6659 6.62204 53.7295 6.6061 53.7613 6.55829C53.7613 6.54235 53.7613 6.52641 53.7454 6.52641C53.8727 6.35375 54.045 6.25812 54.2014 6.11467V6.06686C54.2491 6.00311 54.3286 5.97123 54.3578 5.8942C54.3737 5.84638 54.4373 5.78263 54.5142 5.75341C54.4983 5.73747 54.4664 5.73747 54.4664 5.7056C54.4028 5.7056 54.3392 5.73747 54.2782 5.68966C54.3074 5.66044 54.3419 5.6445 54.3763 5.63387C54.3631 5.63122 54.3498 5.62325 54.3419 5.60997C54.326 5.57809 54.371 5.54356 54.4214 5.53028C54.485 5.51434 54.5619 5.51434 54.6096 5.46652C54.4983 5.45059 54.3737 5.4984 54.2623 5.43465C54.3419 5.23011 54.4665 5.05479 54.6573 4.96182C54.6732 4.96182 54.705 4.96182 54.705 4.97776C54.705 5.05745 54.6573 5.11854 54.5778 5.13448C54.705 5.16636 54.8296 5.16636 54.9568 5.23011C54.9409 5.26199 54.9091 5.24605 54.8932 5.24605C54.9727 5.29386 55.0655 5.26199 55.145 5.32574C55.0973 5.37355 55.0496 5.32574 55.0046 5.32574C55.4923 5.46652 56.0118 5.57809 56.4227 5.8942C56.0755 6.06686 55.715 6.14655 55.3359 6.22624C55.2882 6.22624 55.2564 6.22624 55.2087 6.2103C55.2087 6.22624 55.2087 6.25812 55.1928 6.25812C55.1291 6.25812 55.0814 6.25812 55.0364 6.28999C54.9727 6.32187 54.88 6.33781 54.8323 6.28999V6.29265Z" fill="#221D20"/>
<path d="M71.0336 0.308594H62.066C62.066 0.308594 62.082 0.31125 62.1509 0.348439C62.2224 0.388284 62.3179 0.438755 62.3762 0.467975C62.4928 0.529071 62.6042 0.603449 62.6757 0.720328C62.7075 0.768143 62.7552 0.861115 62.7234 0.924867C62.6916 1.00456 62.6757 1.12941 62.5962 1.16128C62.5008 1.2091 62.3762 1.2091 62.2649 1.19316C62.2012 1.19316 62.1376 1.17722 62.0766 1.16128C62.3126 1.25691 62.5326 1.36582 62.6916 1.5863C62.7075 1.61817 62.7712 1.63411 62.8321 1.63411C62.848 1.63411 62.848 1.66599 62.848 1.68193C62.8162 1.7138 62.7844 1.72974 62.8003 1.77756H62.848C62.9275 1.74568 62.9116 1.58896 63.0203 1.63677C63.0998 1.68458 63.1317 1.79349 63.0839 1.87318C63.0203 1.93694 62.9567 1.98475 62.8957 2.02991C62.8798 2.06179 62.8798 2.1096 62.8957 2.14148C62.9435 2.20523 62.9594 2.26898 62.9753 2.33008C63.023 2.44164 63.0389 2.56649 63.0866 2.67806C63.1502 2.91447 63.2138 3.15089 63.1979 3.38731C63.1979 3.51481 63.1343 3.62372 63.182 3.75122C63.2138 3.87873 63.2934 3.9717 63.3543 4.08327C63.4179 4.1789 63.4816 4.23999 63.5266 4.33562C63.622 4.49235 63.7943 4.65173 63.7148 4.84033C63.6671 4.9519 63.4948 4.93596 63.3835 4.99705C63.2881 5.07674 63.3676 5.20159 63.4153 5.28128C63.4948 5.42207 63.3199 5.5177 63.2112 5.56551C63.243 5.61333 63.3066 5.59739 63.3225 5.62927C63.3384 5.70896 63.4179 5.75677 63.3702 5.8338C63.3066 5.92943 63.1184 5.97459 63.2138 6.11803C63.2774 6.2296 63.235 6.35179 63.1979 6.46602C63.1502 6.6068 63.0256 6.67056 62.9143 6.70243C62.8189 6.73431 62.7102 6.73431 62.6148 6.71837C62.5829 6.70243 62.5511 6.68649 62.5193 6.68649C62.2516 6.65462 61.9839 6.57493 61.7161 6.57493C61.6366 6.59086 61.5597 6.6068 61.4961 6.63868C61.4246 6.69181 61.3609 6.74759 61.3053 6.80869C61.2947 6.82197 61.2814 6.83525 61.2708 6.84587C61.2629 6.85384 61.2576 6.86181 61.2496 6.86978C61.2443 6.87509 61.2417 6.88041 61.2364 6.88572C61.1913 6.94416 61.1489 7.00526 61.1118 7.06635C61.1118 7.07166 61.1065 7.07432 61.1038 7.07963C61.0985 7.0876 61.0959 7.09557 61.0906 7.10088C61.0375 7.19651 61.0004 7.2948 60.9713 7.39043C60.8652 7.75169 60.9103 8.06248 60.9872 8.13686C61.0084 8.15811 61.5067 8.31218 61.854 8.46625C62.0183 8.53797 62.1323 8.59375 62.2251 8.65485H71.0309V0.308594H71.0336Z" fill="#221D20"/>
<path d="M62.5992 3.3556C62.6628 3.37154 62.7556 3.37154 62.7556 3.40341C62.7238 3.53092 62.5356 3.56014 62.4401 3.68764H62.3924C62.3447 3.71952 62.3606 3.79921 62.3129 3.79921C62.2652 3.78327 62.2175 3.79921 62.1724 3.81515C62.236 3.8789 62.3129 3.92671 62.4083 3.91078C62.4242 3.91078 62.456 3.94265 62.456 3.97453C62.456 3.97453 62.472 3.97453 62.4879 3.95859C62.5038 3.95859 62.5197 3.95859 62.5197 3.97453V4.03828C62.4719 4.10203 62.3924 4.07016 62.3315 4.08609C62.4587 4.11797 62.5833 4.11797 62.6946 4.08609C62.79 4.05422 62.6946 3.89749 62.7582 3.8178C62.7264 3.8178 62.7582 3.76999 62.7264 3.76999C62.7582 3.73811 62.79 3.6903 62.8218 3.67436C62.8537 3.67436 62.9014 3.65842 62.9173 3.62655C62.9173 3.59467 62.8537 3.57873 62.8696 3.54685C62.965 3.4831 63.0419 3.39013 63.0127 3.2945C62.9968 3.24669 62.8696 3.24669 62.7927 3.21481C62.7132 3.18293 62.6204 3.21481 62.525 3.23075C62.4454 3.23075 62.3686 3.27856 62.289 3.2945C62.1777 3.32638 62.0849 3.39013 61.9895 3.45123C62.1008 3.40341 62.2095 3.38747 62.3368 3.3556C62.4322 3.3556 62.5117 3.33169 62.6045 3.3556H62.5992Z" fill="#9D9D9C"/>
<path d="M0.844511 5.83801C1.18646 6.04786 1.6848 6.22318 2.20966 6.22318C2.98898 6.22318 3.44226 5.81144 3.44226 5.21376C3.44226 4.66124 3.12682 4.34514 2.33159 4.03966C1.36936 3.69964 0.77294 3.20025 0.77294 2.36615C0.77294 1.44706 1.53371 0.761719 2.68149 0.761719C3.28587 0.761719 3.72324 0.902505 3.98567 1.05126L3.77626 1.67285C3.58275 1.56659 3.19044 1.39127 2.65763 1.39127C1.8518 1.39127 1.54696 1.87473 1.54696 2.27584C1.54696 2.82836 1.90482 3.09931 2.7186 3.41541C3.71529 3.80058 4.22424 4.28404 4.22424 5.15267C4.22424 6.0638 3.55094 6.85273 2.15929 6.85273C1.58938 6.85273 0.969097 6.68538 0.653656 6.47553L0.847162 5.83535L0.844511 5.83801Z" fill="#221D20"/>
<path d="M9.12021 4.61126C9.12021 6.18116 8.03604 6.86384 7.01285 6.86384C5.86772 6.86384 4.98236 6.02178 4.98236 4.68032C4.98236 3.25917 5.91013 2.42773 7.08177 2.42773C8.25341 2.42773 9.12021 3.3123 9.12021 4.61126ZM5.75904 4.65376C5.75904 5.58348 6.29184 6.28476 7.04466 6.28476C7.79747 6.28476 8.33028 5.59145 8.33028 4.63782C8.33028 3.91795 7.97242 3.00682 7.06056 3.00682C6.1487 3.00682 5.75638 3.84888 5.75638 4.65641L5.75904 4.65376Z" fill="#221D20"/>
<path d="M13.6318 5.60816C13.6318 6.04646 13.6397 6.43163 13.6662 6.76633H12.985L12.9399 6.07303H12.9214C12.7199 6.4157 12.2746 6.86196 11.5218 6.86196C10.8564 6.86196 10.0612 6.49273 10.0612 5.00252V2.52148H10.8299V4.87236C10.8299 5.67989 11.0738 6.22178 11.7736 6.22178C12.2905 6.22178 12.6483 5.86317 12.7888 5.5205C12.8339 5.40628 12.8577 5.2655 12.8577 5.12471V2.52148H13.6265V5.60816H13.6318Z" fill="#221D20"/>
<path d="M15.8373 1.30664V2.52591H16.94V3.11296H15.8373V5.40008C15.8373 5.92604 15.9858 6.22355 16.4152 6.22355C16.6166 6.22355 16.7651 6.19698 16.8605 6.17042L16.895 6.7495C16.7465 6.8106 16.5106 6.85576 16.2137 6.85576C15.8559 6.85576 15.5669 6.74154 15.3814 6.53168C15.164 6.30324 15.0845 5.92604 15.0845 5.42664V3.11296H14.4271V2.52591H15.0845V1.50852L15.8373 1.30664Z" fill="#221D20"/>
<path d="M18.1802 4.78657C18.1988 5.83052 18.8615 6.25819 19.6328 6.25819C20.1842 6.25819 20.5155 6.16256 20.8045 6.03772L20.9344 6.59024C20.664 6.71243 20.2001 6.85322 19.5268 6.85322C18.2226 6.85322 17.446 5.99521 17.446 4.71485C17.446 3.43449 18.1988 2.42773 19.4314 2.42773C20.8124 2.42773 21.1809 3.647 21.1809 4.42531C21.1809 4.58204 21.1623 4.70688 21.1544 4.78392H18.1802V4.78657ZM20.4387 4.23405C20.4466 3.74263 20.2372 2.98026 19.3704 2.98026C18.5911 2.98026 18.2518 3.70013 18.1882 4.23405H20.436H20.4387Z" fill="#221D20"/>
<path d="M22.1354 3.67286C22.1354 3.23456 22.1274 2.87595 22.1009 2.52532H22.7822L22.8272 3.22659H22.8458C23.0552 2.82283 23.5456 2.42969 24.2454 2.42969C24.8312 2.42969 25.7404 2.78033 25.7404 4.23601V6.77017H24.9717V4.32367C24.9717 3.64098 24.7172 3.06987 23.9909 3.06987C23.4846 3.06987 23.0897 3.42848 22.9598 3.8588C22.9253 3.95443 22.9068 4.08725 22.9068 4.21741V6.76751H22.138V3.67286H22.1354Z" fill="#221D20"/>
<path d="M30.5331 5.60816C30.5331 6.04646 30.541 6.43163 30.5675 6.76633H29.8863L29.8412 6.07303H29.8227C29.6212 6.4157 29.1759 6.86196 28.4231 6.86196C27.7577 6.86196 26.9625 6.49273 26.9625 5.00252V2.52148H27.7312V4.87236C27.7312 5.67989 27.9751 6.22178 28.6749 6.22178C29.1918 6.22178 29.5496 5.86317 29.6901 5.5205C29.7352 5.40628 29.7591 5.2655 29.7591 5.12471V2.52148H30.5278V5.60816H30.5331Z" fill="#221D20"/>
<path d="M19.7549 13.2081C19.7549 12.6636 19.7363 12.2253 19.7204 11.8241H20.4122L20.4467 12.552H20.4653C20.7807 12.034 21.279 11.7285 21.9709 11.7285C22.9941 11.7285 23.7655 12.5971 23.7655 13.8855C23.7655 15.4102 22.8377 16.1646 21.841 16.1646C21.2817 16.1646 20.7913 15.9202 20.5368 15.4979H20.5183V17.8036H19.7575V13.2108L19.7549 13.2081ZM20.5156 14.3397C20.5156 14.4539 20.5342 14.5602 20.5501 14.6558C20.6906 15.1897 21.1545 15.559 21.7058 15.559C22.5196 15.559 22.9914 14.8922 22.9914 13.92C22.9914 13.07 22.5461 12.3421 21.7323 12.3421C21.2075 12.3421 20.7171 12.7193 20.5686 13.2984C20.5421 13.394 20.5156 13.5083 20.5156 13.6145V14.3424V14.3397Z" fill="#221D20"/>
<path d="M27.0764 16.0663L27.0154 15.5324H26.9889C26.753 15.8645 26.2971 16.1646 25.6954 16.1646C24.8392 16.1646 24.4018 15.559 24.4018 14.9454C24.4018 13.92 25.311 13.3595 26.9465 13.3675V13.2798C26.9465 12.9292 26.8511 12.297 25.9843 12.297C25.592 12.297 25.1785 12.4192 24.8816 12.6131L24.7066 12.1057C25.0565 11.8773 25.5628 11.7285 26.0983 11.7285C27.3918 11.7285 27.7073 12.6131 27.7073 13.4658V15.0516C27.7073 15.4208 27.7258 15.7795 27.7762 16.069H27.0764V16.0663ZM26.9624 13.9014C26.1221 13.8828 25.1679 14.0342 25.1679 14.8577C25.1679 15.3571 25.4992 15.5935 25.8942 15.5935C26.4455 15.5935 26.7954 15.2429 26.9174 14.8843C26.9439 14.8046 26.9624 14.7169 26.9624 14.6399V13.9041V13.9014Z" fill="#221D20"/>
<path d="M28.9476 13.147C28.9476 12.6476 28.9397 12.2173 28.9131 11.8241H29.5864L29.6129 12.6582H29.6474C29.8409 12.0871 30.3048 11.7285 30.819 11.7285C30.9065 11.7285 30.9675 11.7365 31.0391 11.7551V12.4829C30.9595 12.4643 30.8827 12.4564 30.7766 12.4564C30.2332 12.4564 29.8489 12.8681 29.7455 13.4472C29.7269 13.5534 29.711 13.6756 29.711 13.8058V16.069H28.9503V13.1497L28.9476 13.147Z" fill="#221D20"/>
<path d="M39.763 0.308594V47.6501" stroke="#221D20" stroke-width="0.948689" stroke-miterlimit="10"/>
</g>
<defs>
<clipPath id="clip0_1181_4198">
<rect width="114.912" height="47.3846" fill="white" transform="translate(0.650879 0.308594)"/>
</clipPath>
</defs>
</svg>
